<svg width="365" height="364" viewBox="0 0 1581 1575" fill="none" xmlns="http://www.w3.org/2000/svg">
<g clip-path="url(#clip0_65_16)">
<path d="M15.1447 1409.4C34.7106 1449.98 70.7687 1480.17 108.568 1504.72C149.881 1531.52 194.391 1553.05 241.06 1568.79C247.459 1571 253.919 1573.05 260.41 1575H522.882C524.714 1573.01 526.454 1570.94 528.099 1568.79C545.679 1546.3 555.183 1517.47 551.736 1489.23C547.294 1452.96 519.714 1419.64 483.998 1411.94C448.249 1404.21 407.502 1425.53 396.632 1460.44C390.667 1393.17 383.773 1323.1 347.994 1265.82C315.569 1213.97 259.447 1176.86 198.636 1170.22C162.868 1166.5 126.782 1173.1 94.6537 1189.24C91.7026 1190.73 88.7833 1192.28 85.9262 1193.9C66.645 1204.82 49.6304 1219.32 35.798 1236.62C-2.12378 1284.6 -11.4109 1354.32 15.1447 1409.4Z" fill="#F2F2F2"/>
<path d="M87.8509 1198.15C209.908 1297.46 306.357 1424.56 369.113 1568.79C370.014 1570.84 370.915 1572.92 371.785 1575H384.146C383.276 1572.92 382.407 1570.84 381.506 1568.79C369.548 1540.87 356.349 1513.44 341.845 1486.72C310.981 1429.91 274.669 1376.22 233.421 1326.42C192.199 1276.56 146.155 1230.88 95.9584 1190.05C95.56 1189.73 95.1217 1189.45 94.6542 1189.24C93.7817 1188.86 92.8347 1188.69 91.8841 1188.72C90.9335 1188.76 90.0037 1189.01 89.1644 1189.46C88.3251 1189.91 87.598 1190.54 87.0373 1191.31C86.4766 1192.08 86.097 1192.96 85.9267 1193.9C85.8373 1194.71 85.9686 1195.54 86.3071 1196.28C86.6456 1197.03 87.1788 1197.68 87.8509 1198.15Z" fill="white"/>
<path d="M1061.66 910.983C1058.6 907.953 1056.23 904.289 1054.74 900.248C1053.24 896.207 1052.65 891.888 1053.01 887.594C1053.37 883.301 1054.66 879.137 1056.8 875.398C1058.94 871.658 1061.88 868.433 1065.4 865.949L1080.3 767.836L1141.49 787.076L1107.97 874.609C1111.75 880.8 1113.13 888.162 1111.84 895.301C1110.56 902.439 1106.69 908.859 1100.99 913.342C1095.28 917.826 1088.12 920.062 1080.88 919.627C1073.63 919.192 1066.79 916.117 1061.66 910.983H1061.66Z" fill="#FFB8B8"/>
<path d="M1124.7 864.825L1162.44 688.712C1166.12 671.842 1165.4 654.312 1160.35 637.799C1155.31 621.287 1146.1 606.345 1133.62 594.406C1085.3 547.891 1023.21 489.262 1001.76 474.097C981.63 459.761 957.271 452.577 932.574 453.694L932.057 453.75L899.588 484.406L970.317 600.731L1077.69 667.945L1065.74 840.558L1124.7 864.825Z" fill="#5D8BF4"/>
<path d="M992.512 625.5H1150.91C1157.77 625.5 1163.33 631.057 1163.33 637.912C1163.33 644.767 1157.77 650.324 1150.91 650.324H992.512C985.65 650.324 980.088 644.767 980.088 637.912C980.088 631.057 985.65 625.5 992.512 625.5Z" fill="#CCCCCC"/>
<path d="M992.512 895.456H1150.91C1157.77 895.456 1163.33 901.013 1163.33 907.868C1163.33 914.722 1157.77 920.279 1150.91 920.279H992.512C985.65 920.279 980.088 914.722 980.088 907.868C980.088 901.013 985.65 895.456 992.512 895.456Z" fill="#CCCCCC"/>
<path d="M1070.16 1571.9C1071.71 1571.9 1073.21 1571.32 1074.35 1570.27C1075.5 1569.22 1076.21 1567.78 1076.34 1566.24L1155.53 638.46C1155.68 636.821 1155.16 635.191 1154.11 633.929C1153.05 632.666 1151.53 631.876 1149.89 631.73C1148.25 631.585 1146.62 632.097 1145.36 633.153C1144.09 634.209 1143.3 635.724 1143.16 637.363L1070.25 1494.56L999.409 637.378C999.339 636.567 999.11 635.776 998.734 635.053C998.358 634.33 997.844 633.687 997.219 633.163C996.595 632.638 995.874 632.241 995.096 631.995C994.318 631.749 993.499 631.659 992.687 631.729C991.874 631.799 991.083 632.028 990.359 632.403C989.635 632.779 988.992 633.293 988.467 633.917C987.942 634.541 987.545 635.261 987.299 636.038C987.052 636.815 986.962 637.633 987.032 638.445L1063.97 1566.22C1064.1 1567.77 1064.81 1569.21 1065.95 1570.26C1067.1 1571.31 1068.6 1571.89 1070.15 1571.9H1070.16Z" fill="#CCCCCC"/>
<path d="M892.397 416.556C847.39 416.556 810.904 380.104 810.904 335.139C810.904 290.173 847.39 253.721 892.397 253.721C937.404 253.721 973.89 290.173 973.89 335.139C973.89 380.104 937.404 416.556 892.397 416.556Z" fill="#FFB8B8"/>
<path d="M1135.27 1534.69L1174.02 1522.35L1144.82 1367.12L1087.62 1385.34L1135.27 1534.69Z" fill="#FFB8B8"/>
<path d="M1137.42 1569.03L1262.19 1529.3L1261.16 1526.06C1257.19 1513.68 1248.46 1503.37 1236.9 1497.4C1225.33 1491.43 1211.87 1490.29 1199.46 1494.22L1121.48 1519.06L1137.42 1569.03Z" fill="#2F2E41"/>
<path d="M853.294 1533.88H893.971L913.329 1377.13H853.294V1533.88Z" fill="#FFB8B8"/>
<path d="M970.866 1570.07H846.128V1523.82H924.872C937.066 1523.84 948.757 1528.68 957.38 1537.3C966.002 1545.91 970.852 1557.59 970.866 1569.78V1570.07Z" fill="#2F2E41"/>
<path d="M854.483 1483.01L868.212 1480.97C909.851 1474.77 912.344 1474.4 918.955 1471.5C922.331 1470.02 922.568 1447.63 920.541 1321.76C919.054 1229.37 917.202 1114.39 920.797 1052.67C920.946 1050.23 921.911 1047.92 923.537 1046.1C925.163 1044.28 927.355 1043.06 929.761 1042.63C932.166 1042.21 934.644 1042.61 936.795 1043.76C938.945 1044.92 940.644 1046.77 941.616 1049C972.598 1120.49 1024.58 1280.45 1058.98 1386.31C1070.94 1423.13 1080.39 1452.21 1086.37 1469.64C1087.52 1472.94 1089.87 1475.69 1092.94 1477.35C1096.02 1479.01 1099.6 1479.47 1103 1478.64C1131.3 1471.57 1129.41 1468.56 1169.73 1458.14C1173.21 1457.25 1176.22 1455.05 1178.12 1452C1180.02 1448.94 1180.67 1445.27 1179.92 1441.75C1172.63 1407.4 1039.18 850.334 1028.97 797.38C1028.62 795.567 1027.92 793.841 1026.9 792.301C1025.88 790.761 1024.57 789.437 1023.04 788.407C1021.51 787.376 1019.79 786.659 1017.98 786.297C1016.17 785.935 1014.3 785.935 1012.49 786.297C982.444 792.345 964.166 798.761 934.475 804.966C902.437 811.661 869.308 818.585 836.994 825.047C833.778 825.693 830.896 827.459 828.86 830.029C820.864 840.118 809.008 845.781 796.455 851.776C787.992 855.819 807.169 855.454 799.799 861.284C769.953 884.889 812.873 1364.23 838.807 1472.49C839.639 1475.88 841.707 1478.84 844.606 1480.79C847.506 1482.73 851.028 1483.53 854.483 1483.01V1483.01Z" fill="#2F2E41"/>
<path d="M857.662 406.382C862.42 386.212 838.368 342.813 843.126 322.644C846.348 308.985 878.497 318.27 885.999 306.406C893.502 294.542 906.068 284.931 920.114 284.773C936.258 284.592 952.143 296.557 967.436 291.386C982.899 286.157 987.842 265.002 981.005 250.191C974.169 235.381 959.442 225.944 944.893 218.548C920.116 205.955 891.267 196.759 864.749 205.091C848.718 210.127 835.315 221.041 822.344 231.715C810.521 241.445 798.498 251.395 790.233 264.28C774.041 289.522 775.018 323.533 788.855 350.136C802.692 376.739 827.906 396.262 855.688 407.594" fill="#2F2E41"/>
<path d="M1057.76 875.753C1048.97 861.073 1035.62 792.292 1019.15 676.843C1007.94 598.032 998.167 517.954 993.32 477.049C992.944 473.739 991.732 470.578 989.799 467.863C987.865 465.149 985.273 462.97 982.265 461.53C979.12 460.013 975.994 458.578 972.886 457.224C932.749 439.782 892.073 434.004 851.995 440.046C811.976 446.187 774.44 463.275 743.544 489.417L743.179 489.761L743.085 490.252C742.91 491.161 726.078 581.782 760.555 643.008C794.558 703.418 794.955 863.399 794.955 865.008V867.064L796.934 866.5C849.833 851.399 1054.17 877.818 1056.23 878.088L1059.41 878.503L1057.76 875.753Z" fill="#5D8BF4"/>
<path d="M750.259 665.838H908.655C915.516 665.838 921.078 671.395 921.078 678.25C921.078 685.105 915.516 690.662 908.655 690.662H750.259C743.397 690.662 737.835 685.105 737.835 678.25C737.835 671.395 743.397 665.838 750.259 665.838Z" fill="#CCCCCC"/>
<path d="M750.259 935.794H908.655C915.516 935.794 921.078 941.351 921.078 948.206C921.078 955.061 915.516 960.618 908.655 960.618H750.259C743.397 960.618 737.835 955.061 737.835 948.206C737.835 941.351 743.397 935.794 750.259 935.794Z" fill="#CCCCCC"/>
<path d="M827.903 1575C829.456 1575 830.952 1574.42 832.097 1573.37C833.242 1572.33 833.953 1570.89 834.091 1569.34L913.276 678.798C913.349 677.987 913.26 677.169 913.016 676.391C912.771 675.613 912.376 674.892 911.852 674.267C911.329 673.642 910.687 673.126 909.964 672.749C909.241 672.371 908.451 672.14 907.638 672.068C906.826 671.996 906.007 672.085 905.229 672.329C904.45 672.573 903.728 672.968 903.102 673.491C902.477 674.014 901.96 674.655 901.583 675.378C901.205 676.1 900.974 676.89 900.902 677.701L827.993 1497.66L757.156 677.717C757.014 676.077 756.226 674.56 754.966 673.501C753.705 672.441 752.074 671.925 750.433 672.067C748.792 672.208 747.274 672.995 746.213 674.255C745.153 675.514 744.636 677.143 744.778 678.783L821.714 1569.33C821.848 1570.87 822.557 1572.31 823.701 1573.36C824.845 1574.41 826.342 1575 827.895 1575H827.903Z" fill="#CCCCCC"/>
<path d="M879.047 939.726C879.973 935.518 879.965 931.158 879.022 926.954C878.08 922.75 876.226 918.804 873.592 915.393C870.958 911.982 867.607 909.189 863.775 907.212C859.944 905.235 855.725 904.121 851.417 903.949L785.55 829.671L744.647 879.04L820.395 934.325C820.585 941.576 823.432 948.506 828.394 953.8C833.357 959.095 840.09 962.387 847.32 963.053C854.55 963.718 861.773 961.711 867.62 957.412C873.467 953.113 877.533 946.82 879.047 939.725V939.726Z" fill="#FFB8B8"/>
<path d="M840.697 888.027L736.786 749.606L790.369 634.892L786.478 498.841L742.549 490.732L742.083 490.966C720.744 503.435 704.201 522.689 695.099 545.653C685.341 570.028 665.1 652.956 649.839 718.233C645.853 735.033 646.251 752.574 650.995 769.176C655.738 785.778 664.669 800.886 676.931 813.052L804.401 940.406L840.697 888.027Z" fill="#5D8BF4"/>
<path d="M1276.29 1536.51L1134.13 1570.7C1131.37 1571.43 1128.44 1571.17 1125.86 1569.97C1123.27 1568.76 1121.19 1566.69 1119.98 1564.11L997.859 1239.72C997.32 1238.47 997.042 1237.13 997.04 1235.77C997.038 1234.41 997.313 1233.07 997.849 1231.82C998.465 1230.42 999.359 1229.16 1000.48 1228.11C1001.6 1227.07 1002.91 1226.26 1004.35 1225.74L1111.24 1184.96C1112.93 1184.31 1114.74 1184.03 1116.54 1184.13C1118.35 1184.23 1120.11 1184.71 1121.72 1185.53C1123.12 1186.22 1124.35 1187.2 1125.34 1188.41C1126.32 1189.61 1127.04 1191.02 1127.44 1192.52L1127.44 1192.54L1202.88 1478.44L1204 1478.51C1204.43 1478.53 1247.68 1481.47 1267.13 1504.8C1270.76 1509.17 1273.45 1514.24 1275.02 1519.7C1276.6 1525.15 1277.03 1530.88 1276.29 1536.51Z" fill="#CCCCCC"/>
<path d="M40.5192 1571.9C40.5177 1572.31 40.597 1572.71 40.7527 1573.09C40.9082 1573.46 41.137 1573.81 41.4257 1574.09C41.7144 1574.38 42.0573 1574.61 42.4347 1574.77C42.8121 1574.92 43.2167 1575 43.6249 1575H1577.89C1578.72 1575 1579.51 1574.67 1580.09 1574.09C1580.67 1573.51 1581 1572.72 1581 1571.9C1581 1571.07 1580.67 1570.29 1580.09 1569.7C1579.51 1569.12 1578.72 1568.79 1577.89 1568.79H43.6249C43.2167 1568.79 42.8121 1568.87 42.4347 1569.03C42.0573 1569.18 41.7144 1569.41 41.4257 1569.7C41.137 1569.99 40.9082 1570.33 40.7527 1570.71C40.597 1571.09 40.5177 1571.49 40.5192 1571.9Z" fill="#3F3D56"/>
<path d="M1173.33 1354.66L1173.98 1360.84L1044.37 1374.55L1043.72 1368.38L1173.33 1354.66Z" fill="#B3B3B3"/>
<path d="M1184.63 1405.79L1187.18 1411.45L1082.88 1458.34L1080.33 1452.68L1184.63 1405.79Z" fill="#B3B3B3"/>
<path d="M1030.08 1324.91L1153.02 1284.23L1150.47 1278.57L1027.53 1319.25L1030.08 1324.91Z" fill="#B3B3B3"/>
<path d="M1017.66 1296.98L1140.59 1237.69L1138.04 1232.03L1015.11 1291.32L1017.66 1296.98Z" fill="#B3B3B3"/>
<path d="M1195.47 1454.38L1199.51 1459.1L1110.87 1534.75L1106.84 1530.03L1195.47 1454.38Z" fill="#B3B3B3"/>
<path d="M1220.64 1479.46L1226.29 1482.02L1190.7 1560.43L1185.05 1557.87L1220.64 1479.46Z" fill="#B3B3B3"/>
<path d="M387.314 1483.17V68.833C387.314 49.7344 386.95 30.5951 387.314 11.4988C387.33 10.6639 387.314 9.82725 387.314 8.99213C387.314 -2.98746 405.949 -3.00729 405.949 8.99213V1423.33C405.949 1442.42 406.312 1461.56 405.949 1480.66C405.933 1481.49 405.949 1482.33 405.949 1483.17C405.949 1495.15 387.314 1495.17 387.314 1483.17V1483.17Z" fill="#F2F2F2"/>
<path d="M284.253 404.287H507.872C513.224 404.281 518.355 402.154 522.14 398.372C525.924 394.591 528.053 389.465 528.06 384.118V112.61C528.053 107.263 525.924 102.136 522.14 98.3554C518.355 94.5743 513.224 92.4473 507.872 92.4412H284.253C278.901 92.4473 273.77 94.5743 269.985 98.3554C266.201 102.136 264.072 107.263 264.066 112.61V384.118C264.072 389.465 266.201 394.591 269.985 398.372C273.77 402.154 278.901 404.281 284.253 404.287Z" fill="#F2F2F2"/>
</g>
<defs>
<clipPath id="clip0_65_16">
<rect width="1581" height="1575" fill="white" transform="matrix(-1 0 0 1 1581 0)"/>
</clipPath>
</defs>
</svg>
